<svg width="32" height="32" viewBox="0 0 32 32" fill="none" xmlns="http://www.w3.org/2000/svg">
<rect width="32" height="32" fill="#0057FF"/>
<path d="M25.1548 15.6378C25.098 15.0649 24.8542 14.6198 24.4233 14.3026C23.9924 13.9853 23.4077 13.8267 22.669 13.8267C22.1671 13.8267 21.7434 13.8977 21.3977 14.0398C21.0521 14.1771 20.7869 14.3688 20.6023 14.6151C20.4223 14.8613 20.3324 15.1406 20.3324 15.4531C20.3229 15.7135 20.3774 15.9408 20.4957 16.1349C20.6188 16.3291 20.7869 16.4972 21 16.6392C21.2131 16.7765 21.4593 16.8973 21.7386 17.0014C22.018 17.1009 22.3163 17.1861 22.6335 17.2571L23.9403 17.5696C24.5748 17.7116 25.1572 17.901 25.6875 18.1378C26.2178 18.3745 26.6771 18.6657 27.0653 19.0114C27.4536 19.357 27.7543 19.7642 27.9673 20.233C28.1851 20.7017 28.2964 21.2391 28.3011 21.8452C28.2964 22.7353 28.0691 23.5071 27.6193 24.1605C27.1742 24.8092 26.5303 25.3134 25.6875 25.6733C24.8494 26.0284 23.8385 26.206 22.6548 26.206C21.4806 26.206 20.4579 26.026 19.5866 25.6662C18.7202 25.3063 18.0431 24.7737 17.5554 24.0682C17.0724 23.358 16.8191 22.4796 16.7955 21.4332H19.7713C19.8045 21.9209 19.9441 22.3281 20.1903 22.6548C20.4413 22.9768 20.7751 23.2206 21.1918 23.3864C21.6132 23.5473 22.089 23.6278 22.6193 23.6278C23.1402 23.6278 23.5923 23.5521 23.9759 23.4006C24.3641 23.2491 24.6648 23.0384 24.8778 22.7685C25.0909 22.4986 25.1974 22.1884 25.1974 21.8381C25.1974 21.5114 25.1004 21.2367 24.9062 21.0142C24.7169 20.7917 24.4375 20.6023 24.0682 20.446C23.7036 20.2898 23.2562 20.1477 22.7259 20.0199L21.142 19.6222C19.9157 19.3239 18.9474 18.8575 18.2372 18.223C17.527 17.5885 17.1742 16.7339 17.179 15.6591C17.1742 14.7784 17.4086 14.009 17.8821 13.3509C18.3603 12.6927 19.0161 12.179 19.8494 11.8097C20.6828 11.4403 21.6297 11.2557 22.6903 11.2557C23.7699 11.2557 24.7121 11.4403 25.517 11.8097C26.3267 12.179 26.9564 12.6927 27.4062 13.3509C27.8561 14.009 28.0881 14.7713 28.1023 15.6378H25.1548Z" fill="white"/>
<path d="M3.2642 6.45455H7.05682L11.0625 16.2273H11.233L15.2386 6.45455H19.0312V21H16.0483V11.5327H15.9276L12.1634 20.929H10.1321L6.3679 11.4972H6.24716V21H3.2642V6.45455Z" fill="white"/>
</svg>
